<svg width="236" height="236" viewBox="0 0 236 236" fill="none" xmlns="http://www.w3.org/2000/svg">
<path d="M39.735 46.8043C45.8073 46.8043 50.7483 41.8632 50.7483 35.7909C50.7483 29.7186 45.8073 24.7776 39.735 24.7776C33.6627 24.7776 28.7217 29.7186 28.7217 35.7909C28.7217 41.8632 33.6627 46.8043 39.735 46.8043ZM39.735 31.0709C42.3381 31.0709 44.455 33.1878 44.455 35.7909C44.455 38.394 42.3381 40.5109 39.735 40.5109C37.1319 40.5109 35.015 38.394 35.015 35.7909C35.015 33.1878 37.1327 31.0709 39.735 31.0709Z" fill="#B6B6B6"/>
<path d="M182.908 89.2843C182.908 95.3566 187.849 100.298 193.922 100.298C199.994 100.298 204.935 95.3566 204.935 89.2843C204.935 83.212 199.994 78.271 193.922 78.271C187.849 78.271 182.908 83.212 182.908 89.2843ZM193.922 84.5643C196.525 84.5643 198.642 86.6812 198.642 89.2843C198.642 91.8874 196.525 94.0043 193.922 94.0043C191.318 94.0043 189.202 91.8874 189.202 89.2843C189.202 86.6812 191.319 84.5643 193.922 84.5643Z" fill="#B6B6B6"/>
<path d="M206.509 55.0871C208.477 55.0871 210.072 53.4919 210.072 51.5242C210.072 49.5566 208.477 47.9614 206.509 47.9614C204.541 47.9614 202.946 49.5566 202.946 51.5242C202.946 53.4919 204.541 55.0871 206.509 55.0871Z" fill="#B6B6B6"/>
<path d="M55.4691 67.6737C57.4368 67.6737 59.0319 66.0786 59.0319 64.1109C59.0319 62.1432 57.4368 60.5481 55.4691 60.5481C53.5014 60.5481 51.9062 62.1432 51.9062 64.1109C51.9062 66.0786 53.5014 67.6737 55.4691 67.6737Z" fill="#B6B6B6"/>
<path d="M171.757 40.6494C172.371 41.2637 173.176 41.5713 173.981 41.5713C174.786 41.5713 175.592 41.2637 176.206 40.6494L179.762 37.0936L183.317 40.6494C183.932 41.2637 184.737 41.5713 185.542 41.5713C186.347 41.5713 187.152 41.2637 187.767 40.6494C188.996 39.4206 188.996 37.4287 187.767 36.2L184.211 32.6442L187.767 29.0885C188.996 27.8597 188.996 25.8679 187.767 24.6391C186.538 23.4103 184.546 23.4103 183.317 24.6391L179.762 28.1948L176.206 24.6391C174.977 23.4103 172.985 23.4103 171.757 24.6391C170.528 25.8679 170.528 27.8597 171.757 29.0885L175.312 32.6442L171.757 36.2C170.528 37.4287 170.528 39.4198 171.757 40.6494Z" fill="#B6B6B6"/>
<path d="M27.0104 106.729C27.6248 107.344 28.4304 107.651 29.2351 107.651C30.0399 107.651 30.8454 107.344 31.4598 106.729L35.0156 103.174L38.5713 106.729C39.1857 107.344 39.9912 107.651 40.796 107.651C41.6008 107.651 42.4063 107.344 43.0207 106.729C44.2495 105.501 44.2495 103.509 43.0207 102.28L39.465 98.7243L43.0207 95.1686C44.2495 93.9398 44.2495 91.948 43.0207 90.7192C41.7919 89.4904 39.8001 89.4904 38.5713 90.7192L35.0156 94.2749L31.4598 90.7192C30.2311 89.4904 28.2392 89.4904 27.0104 90.7192C25.7817 91.948 25.7817 93.9398 27.0104 95.1686L30.5662 98.7243L27.0104 102.28C25.7817 103.509 25.7817 105.5 27.0104 106.729Z" fill="#B6B6B6"/>
<path d="M134.135 108.164C135.873 108.164 137.282 106.755 137.282 105.018C137.282 103.28 135.873 101.871 134.135 101.871C132.397 101.871 130.988 103.28 130.988 105.018C130.988 106.755 132.397 108.164 134.135 108.164Z" fill="#B6B6B6"/>
<path d="M102.669 108.164C104.407 108.164 105.816 106.755 105.816 105.018C105.816 103.28 104.407 101.871 102.669 101.871C100.931 101.871 99.5225 103.28 99.5225 105.018C99.5225 106.755 100.931 108.164 102.669 108.164Z" fill="#B6B6B6"/>
<path d="M205.249 155.994C201.257 152.998 200.922 148.158 200.535 142.556C199.929 133.823 199.177 122.957 181.726 120.775C172.833 119.672 164.016 122.521 156.888 128.811C150.963 134.044 146.778 141.181 144.829 148.901L132.562 143.327V140.789C132.562 140.76 132.547 140.735 132.546 140.706C144.589 134.952 153.745 124.23 157.46 111.305C159.552 111.36 161.479 110.797 163.381 109.612C166.3 107.79 168.276 104.827 168.663 101.681C169.053 98.5275 168.076 95.3659 165.99 93.0028C164.555 91.383 162.693 90.2369 160.646 89.6752C160.64 89.1222 160.618 87.1114 160.611 86.9022C160.768 86.5246 160.883 72.8767 160.883 72.8767C161.612 72.7902 162.321 72.658 162.991 72.4259C165.351 71.6117 167.152 69.9401 168.338 67.4605H168.342C172.435 58.9063 165.12 46.7877 151.223 37.4578C152.197 34.9924 152.298 32.3036 151.41 29.7831C150.43 27.0085 148.433 24.7807 145.781 23.511C143.129 22.2358 140.142 22.0761 137.361 23.0532C134.837 23.9445 132.805 25.7082 131.496 28.0099C115.516 23.0296 101.488 24.9254 97.3889 33.4796C96.4662 35.407 96.2672 37.4208 96.7148 39.371C83.2478 45.5282 75.8681 57.1693 75.9247 72.3614L75.9649 77.5574C75.9955 80.4979 76.0734 86.007 76.1316 86.2532C76.1308 86.2988 76.1639 88.8995 76.1639 89.6681C74.2712 90.181 72.5468 91.1982 71.1457 92.6488C69.0532 94.8216 67.9589 97.6795 68.0667 100.696C68.1831 104.064 70.0947 107.315 73.1738 109.393C75.1192 110.705 77.0701 111.347 79.1902 111.313C82.4816 123.337 90.4631 133.428 101.112 139.555C101.111 139.581 101.097 139.603 101.097 139.63V143.327L76.0191 154.724C64.4929 159.963 57.0439 171.671 57.0439 184.546V210.429C57.0439 212.169 58.4513 213.576 60.1906 213.576H173.471C175.21 213.576 176.617 212.169 176.617 210.429V195.941C178.167 196.136 179.736 196.269 181.337 196.269C195.236 196.269 209.974 187.275 213.523 176.63C214.959 172.318 215.795 163.904 205.249 155.994ZM139.451 28.9909C140.644 28.5732 141.922 28.6464 143.056 29.1844C144.948 30.093 145.939 32.1014 145.674 34.0744C144.386 33.3656 143.066 32.6757 141.697 32.0204C140.342 31.3714 138.989 30.779 137.642 30.2244C138.15 29.6903 138.737 29.2419 139.451 28.9909ZM103.062 36.1968C104.478 33.2436 108.9 31.5256 115.102 31.5256C121.582 31.5256 130.008 33.4002 138.981 37.6962C156.539 46.1096 165.552 58.7025 162.661 64.7441C162.084 65.9517 161.435 66.3049 160.934 66.4803C157.272 67.7343 148.584 63.4351 139.365 58.8874C137.101 57.7688 134.726 56.5951 132.242 55.4056C129.805 54.2382 127.39 53.1164 125.048 52.0285C114.886 47.3053 104.382 42.4193 102.892 38.2681C102.647 37.5821 102.696 36.9614 103.062 36.1968ZM99.9126 44.8202C104.327 49.327 112.565 53.166 122.393 57.7349C124.716 58.8135 127.11 59.9258 129.525 61.0846C131.983 62.2614 134.337 63.4233 136.581 64.5294C143.722 68.0568 149.654 70.9777 154.588 72.267V84.1654C145.173 91.2454 134.525 93.9279 124.461 91.7276C115.439 89.7578 107.957 84.0395 103.937 76.0407C103.479 75.1313 102.609 74.498 101.605 74.3446C100.594 74.1818 99.5767 74.5287 98.8694 75.2603C94.8102 79.4391 88.8827 81.9501 82.2912 82.3615C82.2881 80.8433 82.27 79.1905 82.2543 77.4968L82.2141 72.337C82.1551 56.1207 91.6172 48.4428 99.9126 44.8202ZM84.6457 107.089C84.4648 106.207 83.9141 105.445 83.1337 104.993C82.3534 104.545 81.4157 104.458 80.559 104.738C79.342 105.153 78.2171 105.209 76.6933 104.176C75.2985 103.236 74.401 101.816 74.3514 100.473C74.305 99.1765 74.7754 97.9501 75.673 97.0187C76.5706 96.0904 77.775 95.5775 79.0683 95.5775C79.9194 95.5775 80.7675 95.2149 81.3606 94.6068C82.2346 93.7084 82.5044 92.9375 82.4501 88.6431C89.1816 88.2655 95.427 86.0699 100.321 82.3521C105.468 90.2219 113.583 95.7962 123.118 97.8762C125.872 98.4788 128.653 98.7769 131.44 98.7769C139.266 98.7746 147.115 96.3917 154.421 91.855C154.54 93.2931 154.827 93.9814 155.464 94.6249C156.054 95.2243 156.892 95.5775 157.735 95.5775C159.087 95.5775 160.377 96.1581 161.272 97.1721C162.181 98.1987 162.587 99.5258 162.418 100.912C162.258 102.19 161.373 103.444 160.052 104.271C158.724 105.098 157.6 105.224 156.177 104.723C155.329 104.412 154.385 104.501 153.599 104.937C152.809 105.377 152.246 106.135 152.053 107.018C148.989 121.086 138.591 132.578 124.913 137.01L123.524 137.464C119.611 138.733 115.614 138.78 111.969 137.603C98.056 133.126 87.5863 121.433 84.6457 107.089ZM110.04 143.595C112.424 144.363 114.905 144.744 117.421 144.744C120.092 144.744 122.799 144.314 125.467 143.45L126.269 143.188V144.351C126.269 149.556 122.034 153.791 116.829 153.791C111.624 153.791 107.389 149.556 107.389 144.351V142.552C108.273 142.898 109.128 143.301 110.04 143.595ZM170.322 207.284H151.442V191.551C151.442 189.812 150.034 188.404 148.295 188.404C146.556 188.404 145.148 189.812 145.148 191.551V207.284H85.3616V191.551C85.3616 189.812 83.9542 188.404 82.2149 188.404C80.4756 188.404 79.0683 189.812 79.0683 191.551V207.284H63.3349V184.548C63.3349 174.134 69.3364 164.675 78.623 160.453L102.118 149.776C104.338 155.774 110.068 160.084 116.828 160.084C123.59 160.084 129.318 155.774 131.539 149.775L143.75 155.323C143.661 156.384 143.575 157.445 143.575 158.511C143.575 175.502 154.857 189.897 170.322 194.623V207.284ZM207.55 174.641C204.874 182.667 192.379 189.978 181.335 189.978C163.985 189.978 149.868 175.861 149.868 158.511C149.868 149.05 154.05 139.711 161.054 133.531C166.008 129.158 171.929 126.835 177.988 126.835C178.972 126.835 179.958 126.896 180.945 127.019C193.258 128.559 193.676 134.612 194.257 142.989C194.687 149.231 195.176 156.304 201.475 161.027C207.108 165.253 209.151 169.835 207.55 174.641Z" fill="#B6B6B6"/>
<path d="M193.922 161.787C188.788 161.787 184.611 165.963 184.611 171.098C184.611 176.229 188.788 180.405 193.922 180.405C199.057 180.405 203.233 176.229 203.233 171.098C203.233 165.963 199.058 161.787 193.922 161.787ZM193.922 174.112C192.26 174.112 190.905 172.76 190.905 171.098C190.905 169.435 192.26 168.08 193.922 168.08C195.585 168.08 196.94 169.435 196.94 171.098C196.94 172.76 195.585 174.112 193.922 174.112Z" fill="#B6B6B6"/>
<path d="M175.042 131.396C170.501 131.396 166.807 135.089 166.807 139.631C166.807 144.173 170.5 147.867 175.042 147.867C179.584 147.867 183.278 144.173 183.278 139.631C183.278 135.089 179.584 131.396 175.042 131.396ZM175.042 141.573C173.973 141.573 173.1 140.701 173.1 139.631C173.1 138.561 173.972 137.689 175.042 137.689C176.112 137.689 176.985 138.561 176.985 139.631C176.985 140.701 176.112 141.573 175.042 141.573Z" fill="#B6B6B6"/>
<path d="M169.118 156.938C169.118 152.396 165.424 148.702 160.882 148.702C156.34 148.702 152.646 152.395 152.646 156.938C152.646 161.48 156.34 165.173 160.882 165.173C165.424 165.173 169.118 161.48 169.118 156.938ZM160.882 158.88C159.813 158.88 158.94 158.007 158.94 156.938C158.94 155.868 159.812 154.995 160.882 154.995C161.952 154.995 162.824 155.868 162.824 156.938C162.824 158.007 161.952 158.88 160.882 158.88Z" fill="#B6B6B6"/>
<path d="M171.896 169.155C167.354 169.155 163.66 172.849 163.66 177.391C163.66 181.933 167.354 185.626 171.896 185.626C176.438 185.626 180.131 181.933 180.131 177.391C180.131 172.849 176.438 169.155 171.896 169.155ZM171.896 179.333C170.827 179.333 169.953 178.461 169.953 177.391C169.953 176.321 170.826 175.449 171.896 175.449C172.966 175.449 173.838 176.321 173.838 177.391C173.838 178.461 172.966 179.333 171.896 179.333Z" fill="#B6B6B6"/>
<path d="M48.3033 136.131C47.7196 135.554 47.1265 134.967 46.5491 134.361C46.5483 134.36 46.5475 134.36 46.5475 134.359C46.5467 134.359 46.5467 134.359 46.5467 134.358C44.1348 131.835 42.5276 129.536 42.5276 126.528C42.5276 122.53 40.4532 121.433 39.215 121.136C34.3077 119.894 28.5611 129.525 25.5742 135.348C23.7798 138.847 21.6377 143.746 21.6377 147.209C21.6377 153.315 25.0054 158.599 29.9449 161.459L28.1245 201.882C27.9767 205.148 29.1205 208.308 31.2618 210.545C33.1301 212.502 35.5821 213.578 38.1632 213.578C40.7443 213.578 43.1963 212.502 45.0646 210.545C47.2067 208.308 48.3497 205.149 48.2019 201.882L46.3815 161.459C51.321 158.598 54.6895 153.314 54.6895 147.209C54.6887 142.455 51.2958 139.094 48.3033 136.131ZM36.5647 129.622C37.1484 132.256 38.4299 134.447 39.9143 136.333C38.802 137.16 37.7046 137.596 36.6323 137.639C35.188 137.633 33.621 136.966 32.3427 136.041C33.8664 133.334 35.3635 131.15 36.5647 129.622ZM41.9148 202.165C41.9856 203.722 41.4751 205.195 40.5169 206.196C40.0433 206.694 39.248 207.284 38.1632 207.284C37.0784 207.284 36.2823 206.694 35.8095 206.196C34.8505 205.195 34.3408 203.722 34.4116 202.165L36.1509 163.531C36.818 163.613 37.4741 163.735 38.1632 163.735C38.8523 163.735 39.5084 163.614 40.1755 163.531L41.9148 202.165ZM38.1624 157.442C32.5204 157.442 27.9295 152.851 27.9295 147.209C27.9295 146.317 28.3967 144.42 29.55 141.686C31.8156 143.136 34.1205 143.936 36.4475 143.936C36.5891 143.936 36.7299 143.932 36.8746 143.926C39.4518 143.827 41.9093 142.815 44.2166 140.941C46.4909 143.2 48.3954 145.181 48.3954 147.208C48.3954 152.851 43.8044 157.442 38.1624 157.442Z" fill="#B6B6B6"/>
</svg>
