<svg width="107" height="107" viewBox="0 0 107 107" fill="none" xmlns="http://www.w3.org/2000/svg">
<path d="M18.0148 21.2206C20.7679 21.2206 23.0082 18.9803 23.0082 16.2272C23.0082 13.4741 20.7679 11.2339 18.0148 11.2339C15.2617 11.2339 13.0215 13.4741 13.0215 16.2272C13.0215 18.9803 15.2617 21.2206 18.0148 21.2206ZM18.0148 14.0872C19.195 14.0872 20.1548 15.047 20.1548 16.2272C20.1548 17.4074 19.195 18.3672 18.0148 18.3672C16.8346 18.3672 15.8748 17.4074 15.8748 16.2272C15.8748 15.047 16.835 14.0872 18.0148 14.0872Z" fill="#B6B6B6"/>
<path d="M82.9297 40.4806C82.9297 43.2337 85.1699 45.474 87.923 45.474C90.6761 45.474 92.9163 43.2337 92.9163 40.4806C92.9163 37.7275 90.6761 35.4873 87.923 35.4873C85.1699 35.4873 82.9297 37.7275 82.9297 40.4806ZM87.923 38.3406C89.1032 38.3406 90.063 39.3004 90.063 40.4806C90.063 41.6608 89.1032 42.6206 87.923 42.6206C86.7428 42.6206 85.783 41.6608 85.783 40.4806C85.783 39.3004 86.7432 38.3406 87.923 38.3406Z" fill="#B6B6B6"/>
<path d="M93.629 24.976C94.5211 24.976 95.2444 24.2528 95.2444 23.3607C95.2444 22.4686 94.5211 21.7454 93.629 21.7454C92.7369 21.7454 92.0137 22.4686 92.0137 23.3607C92.0137 24.2528 92.7369 24.976 93.629 24.976Z" fill="#B6B6B6"/>
<path d="M25.1485 30.6826C26.0407 30.6826 26.7639 29.9594 26.7639 29.0672C26.7639 28.1751 26.0407 27.4519 25.1485 27.4519C24.2564 27.4519 23.5332 28.1751 23.5332 29.0672C23.5332 29.9594 24.2564 30.6826 25.1485 30.6826Z" fill="#B6B6B6"/>
<path d="M77.8729 18.4301C78.1515 18.7087 78.5167 18.8481 78.8816 18.8481C79.2464 18.8481 79.6117 18.7087 79.8902 18.4301L81.5024 16.818L83.1145 18.4301C83.393 18.7087 83.7583 18.8481 84.1231 18.8481C84.488 18.8481 84.8532 18.7087 85.1318 18.4301C85.6889 17.873 85.6889 16.9699 85.1318 16.4128L83.5197 14.8007L85.1318 13.1886C85.6889 12.6314 85.6889 11.7284 85.1318 11.1713C84.5747 10.6141 83.6716 10.6141 83.1145 11.1713L81.5024 12.7834L79.8902 11.1713C79.3331 10.6141 78.43 10.6141 77.8729 11.1713C77.3158 11.7284 77.3158 12.6314 77.8729 13.1886L79.485 14.8007L77.8729 16.4128C77.3158 16.9699 77.3158 17.8727 77.8729 18.4301Z" fill="#B6B6B6"/>
<path d="M12.246 48.3901C12.5245 48.6686 12.8897 48.8081 13.2546 48.8081C13.6195 48.8081 13.9847 48.6686 14.2633 48.3901L15.8754 46.778L17.4875 48.3901C17.7661 48.6686 18.1313 48.8081 18.4962 48.8081C18.8611 48.8081 19.2263 48.6686 19.5048 48.3901C20.062 47.833 20.062 46.9299 19.5048 46.3728L17.8927 44.7607L19.5048 43.1485C20.062 42.5914 20.062 41.6883 19.5048 41.1312C18.9477 40.5741 18.0446 40.5741 17.4875 41.1312L15.8754 42.7433L14.2633 41.1312C13.7062 40.5741 12.8031 40.5741 12.246 41.1312C11.6888 41.6883 11.6888 42.5914 12.246 43.1485L13.8581 44.7607L12.246 46.3728C11.6888 46.9299 11.6888 47.8326 12.246 48.3901Z" fill="#B6B6B6"/>
<path d="M60.8153 49.0406C61.6033 49.0406 62.242 48.4018 62.242 47.6139C62.242 46.826 61.6033 46.1873 60.8153 46.1873C60.0274 46.1873 59.3887 46.826 59.3887 47.6139C59.3887 48.4018 60.0274 49.0406 60.8153 49.0406Z" fill="#B6B6B6"/>
<path d="M46.5497 49.0406C47.3376 49.0406 47.9764 48.4018 47.9764 47.6139C47.9764 46.826 47.3376 46.1873 46.5497 46.1873C45.7618 46.1873 45.123 46.826 45.123 47.6139C45.123 48.4018 45.7618 49.0406 46.5497 49.0406Z" fill="#B6B6B6"/>
<path d="M93.0579 70.7263C91.2481 69.3677 91.0962 67.1735 90.9207 64.6337C90.6461 60.674 90.3048 55.7477 82.3928 54.7583C78.3607 54.2583 74.3635 55.5498 71.1314 58.4017C68.445 60.7742 66.5479 64.0102 65.6641 67.5102L60.1026 64.9832V63.8323C60.1026 63.8191 60.0954 63.808 60.0951 63.7948C65.5553 61.1858 69.7065 56.3248 71.3907 50.4644C72.3395 50.4894 73.2129 50.2344 74.0754 49.6969C75.3989 48.8708 76.2949 47.5276 76.4704 46.1009C76.6473 44.6714 76.2043 43.238 75.2584 42.1665C74.6079 41.4322 73.7636 40.9125 72.8356 40.6579C72.8327 40.4071 72.8227 39.4955 72.8195 39.4006C72.8909 39.2294 72.9429 33.0416 72.9429 33.0416C73.2732 33.0024 73.5949 32.9424 73.8988 32.8372C74.9688 32.4681 75.7852 31.7101 76.3231 30.5859H76.3245C78.1806 26.7075 74.8639 21.2131 68.5631 16.983C69.0046 15.8652 69.0506 14.6461 68.648 13.5034C68.2035 12.2454 67.298 11.2353 66.0956 10.6597C64.8933 10.0815 63.5391 10.0091 62.2782 10.4521C61.1341 10.8562 60.2128 11.6559 59.6193 12.6995C52.374 10.4414 46.0139 11.301 44.1553 15.1794C43.7369 16.0532 43.6467 16.9663 43.8496 17.8504C37.7439 20.6421 34.398 25.92 34.4236 32.808L34.4418 35.1638C34.4557 36.497 34.491 38.9947 34.5174 39.1063C34.5171 39.127 34.5321 40.3062 34.5321 40.6546C33.6739 40.8872 32.8921 41.3484 32.2569 42.0061C31.3082 42.9912 30.812 44.2869 30.8609 45.6548C30.9137 47.1816 31.7804 48.6557 33.1764 49.5977C34.0584 50.1926 34.9429 50.4837 35.9042 50.4683C37.3965 55.92 41.0152 60.4949 45.8434 63.2727C45.843 63.2848 45.8366 63.2948 45.8366 63.3069V64.9829L34.4664 70.1503C29.2406 72.5257 25.8633 77.8339 25.8633 83.6715V95.4065C25.8633 96.1951 26.5014 96.8332 27.2899 96.8332H78.65C79.4385 96.8332 80.0766 96.1951 80.0766 95.4065V88.8378C80.7793 88.9263 81.4905 88.9865 82.2166 88.9865C88.5182 88.9865 95.2 84.9084 96.8093 80.0824C97.4602 78.1271 97.8393 74.3126 93.0579 70.7263ZM63.2259 13.1442C63.7666 12.9548 64.3462 12.988 64.8602 13.232C65.7183 13.6439 66.1673 14.5545 66.0471 15.449C65.4633 15.1276 64.8648 14.8148 64.2442 14.5177C63.6297 14.2235 63.0165 13.9549 62.4056 13.7035C62.636 13.4613 62.9021 13.258 63.2259 13.1442ZM46.7272 16.4113C47.3696 15.0724 49.3744 14.2934 52.186 14.2934C55.1242 14.2934 58.9445 15.1433 63.0126 17.0911C70.9734 20.9056 75.0598 26.6152 73.749 29.3544C73.4872 29.9019 73.193 30.062 72.9661 30.1415C71.3055 30.7101 67.3668 28.7609 63.187 26.699C62.1602 26.1918 61.0834 25.6597 59.9574 25.1204C58.8525 24.5911 57.7575 24.0825 56.6957 23.5892C52.0883 21.4478 47.3261 19.2325 46.6505 17.3504C46.5393 17.0394 46.5614 16.758 46.7272 16.4113ZM45.2995 20.3211C47.3007 22.3644 51.0361 24.1049 55.4919 26.1765C56.5452 26.6655 57.6305 27.1698 58.7255 27.6952C59.8401 28.2287 60.9072 28.7555 61.9244 29.257C65.1622 30.8563 67.8515 32.1806 70.0889 32.7652V38.1598C65.8199 41.3698 60.9925 42.586 56.4296 41.5884C52.339 40.6953 48.9468 38.1027 47.1242 34.4761C46.9166 34.0638 46.5221 33.7767 46.0667 33.7071C45.6084 33.6333 45.1472 33.7906 44.8265 34.1223C42.9861 36.0169 40.2987 37.1554 37.3101 37.3419C37.3087 36.6536 37.3005 35.9042 37.2934 35.1363L37.2752 32.7969C37.2484 25.4446 41.5384 21.9635 45.2995 20.3211ZM38.3776 48.553C38.2956 48.1532 38.0459 47.8076 37.6921 47.6029C37.3383 47.3996 36.9132 47.3603 36.5248 47.4873C35.973 47.6753 35.463 47.7006 34.7721 47.2323C34.1397 46.8061 33.7328 46.1623 33.7103 45.5535C33.6893 44.9657 33.9025 44.4096 34.3095 43.9873C34.7165 43.5665 35.2625 43.3339 35.8489 43.3339C36.2348 43.3339 36.6193 43.1695 36.8882 42.8938C37.2845 42.4865 37.4068 42.1369 37.3822 40.1899C40.4342 40.0187 43.2658 39.0232 45.4846 37.3376C47.8183 40.9057 51.4976 43.4331 55.8208 44.3761C57.0691 44.6493 58.3299 44.7845 59.5936 44.7845C63.1421 44.7834 66.7006 43.7031 70.0129 41.6462C70.0671 42.2982 70.1973 42.6102 70.4859 42.902C70.7534 43.1738 71.1336 43.3339 71.5156 43.3339C72.1287 43.3339 72.7136 43.5971 73.1191 44.0569C73.5314 44.5223 73.7155 45.124 73.6388 45.7525C73.5664 46.3321 73.1651 46.9006 72.5659 47.2754C71.9639 47.6503 71.4542 47.7074 70.809 47.4802C70.4245 47.3393 69.9969 47.3799 69.6402 47.5775C69.2821 47.7769 69.0271 48.1207 68.9394 48.5209C67.5501 54.8992 62.8357 60.1097 56.6343 62.1188L56.0045 62.325C54.2308 62.9003 52.4182 62.9213 50.7658 62.3878C44.4577 60.358 39.7109 55.0565 38.3776 48.553ZM49.8912 65.1045C50.9723 65.453 52.0968 65.6256 53.2378 65.6256C54.4487 65.6256 55.676 65.4305 56.8854 65.0389L57.2492 64.9201V65.4473C57.2492 67.8073 55.3293 69.7273 52.9692 69.7273C50.6092 69.7273 48.6892 67.8073 48.6892 65.4473V64.6316C49.0901 64.7885 49.4778 64.9715 49.8912 65.1045ZM77.2222 93.9806H68.6622V86.8473C68.6622 86.0587 68.0241 85.4206 67.2356 85.4206C66.447 85.4206 65.8089 86.0587 65.8089 86.8473V93.9806H38.7022V86.8473C38.7022 86.0587 38.0641 85.4206 37.2755 85.4206C36.487 85.4206 35.8489 86.0587 35.8489 86.8473V93.9806H28.7155V83.6722C28.7155 78.9507 31.4366 74.6621 35.647 72.7479L46.2992 67.9068C47.3061 70.6264 49.9037 72.5806 52.9689 72.5806C56.0344 72.5806 58.6317 70.6264 59.6385 67.9065L65.1747 70.422C65.1348 70.9028 65.0956 71.384 65.0956 71.8673C65.0956 79.5709 70.2109 86.0975 77.2222 88.24V93.9806ZM94.1011 79.1804C92.8877 82.8194 87.2228 86.1339 82.2156 86.1339C74.3493 86.1339 67.9489 79.7335 67.9489 71.8673C67.9489 67.5776 69.8449 63.3436 73.0203 60.5417C75.2663 58.5589 77.9509 57.5057 80.6983 57.5057C81.1441 57.5057 81.5914 57.5335 82.0387 57.5892C87.6212 58.2872 87.8109 61.0317 88.0742 64.8299C88.2693 67.6597 88.4907 70.8668 91.3469 73.0082C93.9007 74.9239 94.8273 77.0015 94.1011 79.1804Z" fill="#B6B6B6"/>
<path d="M87.9227 73.3523C85.5947 73.3523 83.7012 75.2458 83.7012 77.5738C83.7012 79.9003 85.5947 81.7939 87.9227 81.7939C90.2506 81.7939 92.1442 79.9003 92.1442 77.5738C92.1442 75.2458 90.251 73.3523 87.9227 73.3523ZM87.9227 78.9406C87.169 78.9406 86.5545 78.3274 86.5545 77.5738C86.5545 76.8202 87.169 76.2056 87.9227 76.2056C88.6763 76.2056 89.2908 76.8202 89.2908 77.5738C89.2908 78.3274 88.6763 78.9406 87.9227 78.9406Z" fill="#B6B6B6"/>
<path d="M79.3629 59.5732C77.3038 59.5732 75.6289 61.2478 75.6289 63.3072C75.6289 65.3666 77.3035 67.0411 79.3629 67.0411C81.4222 67.0411 83.0968 65.3666 83.0968 63.3072C83.0968 61.2478 81.4222 59.5732 79.3629 59.5732ZM79.3629 64.1878C78.8781 64.1878 78.4822 63.7923 78.4822 63.3072C78.4822 62.8221 78.8778 62.4266 79.3629 62.4266C79.8479 62.4266 80.2435 62.8221 80.2435 63.3072C80.2435 63.7923 79.8479 64.1878 79.3629 64.1878Z" fill="#B6B6B6"/>
<path d="M76.6769 71.1539C76.6769 69.0948 75.0023 67.4199 72.9429 67.4199C70.8835 67.4199 69.209 69.0945 69.209 71.1539C69.209 73.2133 70.8835 74.8878 72.9429 74.8878C75.0023 74.8878 76.6769 73.2133 76.6769 71.1539ZM72.9429 72.0345C72.4582 72.0345 72.0623 71.6389 72.0623 71.1539C72.0623 70.6688 72.4579 70.2733 72.9429 70.2733C73.428 70.2733 73.8235 70.6688 73.8235 71.1539C73.8235 71.6389 73.428 72.0345 72.9429 72.0345Z" fill="#B6B6B6"/>
<path d="M77.9351 76.6934C75.8761 76.6934 74.2012 78.3679 74.2012 80.4273C74.2012 82.4867 75.8757 84.1613 77.9351 84.1613C79.9945 84.1613 81.6691 82.4867 81.6691 80.4273C81.6691 78.3679 79.9945 76.6934 77.9351 76.6934ZM77.9351 81.3079C77.4504 81.3079 77.0545 80.9124 77.0545 80.4273C77.0545 79.9422 77.45 79.5467 77.9351 79.5467C78.4202 79.5467 78.8157 79.9422 78.8157 80.4273C78.8157 80.9124 78.4202 81.3079 77.9351 81.3079Z" fill="#B6B6B6"/>
<path d="M21.9005 61.7204C21.6358 61.4586 21.3669 61.1925 21.1051 60.9179C21.1048 60.9175 21.1044 60.9175 21.1044 60.9172C21.104 60.9172 21.104 60.9168 21.104 60.9164C20.0105 59.7726 19.2818 58.7304 19.2818 57.3665C19.2818 55.554 18.3413 55.0564 17.7799 54.9216C15.555 54.3588 12.9496 58.7251 11.5953 61.3651C10.7818 62.9519 9.81055 65.1729 9.81055 66.7429C9.81055 69.5114 11.3374 71.9071 13.5769 73.204L12.7516 91.5313C12.6846 93.0122 13.2032 94.4445 14.174 95.4589C15.0211 96.3463 16.1328 96.8338 17.303 96.8338C18.4733 96.8338 19.585 96.3463 20.4321 95.4589C21.4033 94.4445 21.9215 93.0125 21.8545 91.5313L21.0291 73.204C23.2687 71.9068 24.7959 69.511 24.7959 66.7429C24.7955 64.5876 23.2572 63.0636 21.9005 61.7204ZM16.5783 58.7693C16.8429 59.9634 17.424 60.9567 18.097 61.812C17.5927 62.1869 17.0951 62.3845 16.609 62.4041C15.9541 62.4012 15.2436 62.0991 14.6641 61.6797C15.3549 60.4524 16.0337 59.462 16.5783 58.7693ZM19.004 91.6593C19.0361 92.3655 18.8046 93.0332 18.3702 93.4872C18.1555 93.713 17.7949 93.9805 17.303 93.9805C16.8112 93.9805 16.4503 93.713 16.2359 93.4872C15.8011 93.0332 15.57 92.3655 15.6021 91.6593L16.3907 74.1434C16.6931 74.1805 16.9906 74.2358 17.303 74.2358C17.6155 74.2358 17.9129 74.1809 18.2154 74.1434L19.004 91.6593ZM17.3027 71.3825C14.7447 71.3825 12.6632 69.301 12.6632 66.7429C12.6632 66.3385 12.875 65.4786 13.3979 64.2391C14.4251 64.8965 15.4701 65.2589 16.5252 65.2589C16.5894 65.2589 16.6532 65.2574 16.7188 65.2546C17.8873 65.2096 19.0015 64.7506 20.0476 63.9014C21.0787 64.9254 21.9422 65.8235 21.9422 66.7426C21.9422 69.301 19.8607 71.3825 17.3027 71.3825Z" fill="#B6B6B6"/>
</svg>
