<svg width="170" height="170" viewBox="0 0 170 170" fill="none" xmlns="http://www.w3.org/2000/svg">
<path d="M28.6228 33.7151C32.9969 33.7151 36.5561 30.1558 36.5561 25.7817C36.5561 21.4076 32.9969 17.8484 28.6228 17.8484C24.2487 17.8484 20.6895 21.4076 20.6895 25.7817C20.6895 30.1558 24.2487 33.7151 28.6228 33.7151ZM28.6228 22.3817C30.4979 22.3817 32.0228 23.9066 32.0228 25.7817C32.0228 27.6568 30.4979 29.1817 28.6228 29.1817C26.7477 29.1817 25.2228 27.6568 25.2228 25.7817C25.2228 23.9066 26.7483 22.3817 28.6228 22.3817Z" fill="#B6B6B6"/>
<path d="M131.756 64.3149C131.756 68.689 135.315 72.2483 139.689 72.2483C144.063 72.2483 147.623 68.689 147.623 64.3149C147.623 59.9408 144.063 56.3816 139.689 56.3816C135.315 56.3816 131.756 59.9408 131.756 64.3149ZM139.689 60.9149C141.564 60.9149 143.089 62.4398 143.089 64.3149C143.089 66.19 141.564 67.7149 139.689 67.7149C137.814 67.7149 136.289 66.19 136.289 64.3149C136.289 62.4398 137.815 60.9149 139.689 60.9149Z" fill="#B6B6B6"/>
<path d="M148.756 39.6814C150.173 39.6814 151.322 38.5324 151.322 37.115C151.322 35.6976 150.173 34.5486 148.756 34.5486C147.338 34.5486 146.189 35.6976 146.189 37.115C146.189 38.5324 147.338 39.6814 148.756 39.6814Z" fill="#B6B6B6"/>
<path d="M39.9561 48.7481C41.3735 48.7481 42.5225 47.5991 42.5225 46.1817C42.5225 44.7643 41.3735 43.6152 39.9561 43.6152C38.5387 43.6152 37.3896 44.7643 37.3896 46.1817C37.3896 47.5991 38.5387 48.7481 39.9561 48.7481Z" fill="#B6B6B6"/>
<path d="M123.723 29.2814C124.166 29.7239 124.746 29.9455 125.326 29.9455C125.906 29.9455 126.486 29.7239 126.928 29.2814L129.49 26.72L132.051 29.2814C132.494 29.7239 133.074 29.9455 133.654 29.9455C134.233 29.9455 134.814 29.7239 135.256 29.2814C136.141 28.3962 136.141 26.9614 135.256 26.0763L132.695 23.515L135.256 20.9536C136.141 20.0685 136.141 18.6337 135.256 17.7486C134.371 16.8634 132.936 16.8634 132.051 17.7486L129.49 20.3099L126.928 17.7486C126.043 16.8634 124.609 16.8634 123.723 17.7486C122.838 18.6337 122.838 20.0685 123.723 20.9536L126.285 23.515L123.723 26.0763C122.838 26.9614 122.838 28.3957 123.723 29.2814Z" fill="#B6B6B6"/>
<path d="M19.4568 76.8812C19.8994 77.3238 20.4797 77.5453 21.0594 77.5453C21.6391 77.5453 22.2193 77.3238 22.6619 76.8812L25.2232 74.3199L27.7846 76.8812C28.2271 77.3238 28.8074 77.5453 29.3871 77.5453C29.9668 77.5453 30.5471 77.3238 30.9896 76.8812C31.8748 75.9961 31.8748 74.5613 30.9896 73.6761L28.4283 71.1148L30.9896 68.5535C31.8748 67.6684 31.8748 66.2336 30.9896 65.3484C30.1045 64.4633 28.6697 64.4633 27.7846 65.3484L25.2232 67.9098L22.6619 65.3484C21.7768 64.4633 20.342 64.4633 19.4568 65.3484C18.5717 66.2336 18.5717 67.6684 19.4568 68.5535L22.0182 71.1148L19.4568 73.6761C18.5717 74.5613 18.5717 75.9955 19.4568 76.8812Z" fill="#B6B6B6"/>
<path d="M96.6231 77.9149C97.875 77.9149 98.8898 76.9001 98.8898 75.6483C98.8898 74.3964 97.875 73.3816 96.6231 73.3816C95.3713 73.3816 94.3564 74.3964 94.3564 75.6483C94.3564 76.9001 95.3713 77.9149 96.6231 77.9149Z" fill="#B6B6B6"/>
<path d="M73.9561 77.9149C75.208 77.9149 76.2228 76.9001 76.2228 75.6483C76.2228 74.3964 75.208 73.3816 73.9561 73.3816C72.7043 73.3816 71.6895 74.3964 71.6895 75.6483C71.6895 76.9001 72.7043 77.9149 73.9561 77.9149Z" fill="#B6B6B6"/>
<path d="M147.849 112.369C144.973 110.211 144.732 106.724 144.453 102.689C144.017 96.3981 143.474 88.5713 130.904 86.9993C124.498 86.2049 118.147 88.2568 113.012 92.7878C108.744 96.5573 105.73 101.699 104.326 107.259L95.4897 103.245V101.416C95.4897 101.395 95.4784 101.377 95.4778 101.356C104.153 97.2112 110.748 89.4881 113.424 80.1772C114.931 80.2169 116.319 79.8117 117.689 78.9578C119.792 77.6454 121.216 75.5113 121.495 73.2446C121.776 70.9734 121.072 68.696 119.569 66.9937C118.535 65.827 117.194 65.0013 115.72 64.5967C115.715 64.1984 115.699 62.75 115.694 62.5992C115.808 62.3272 115.89 52.4961 115.89 52.4961C116.415 52.4338 116.926 52.3386 117.409 52.1714C119.109 51.5849 120.406 50.3808 121.261 48.5946H121.263C124.212 42.4327 118.942 33.7032 108.932 26.9825C109.633 25.2066 109.706 23.2697 109.066 21.4541C108.36 19.4555 106.922 17.8507 105.011 16.9361C103.101 16.0175 100.95 15.9025 98.9464 16.6063C97.1285 17.2483 95.6648 18.5188 94.7219 20.1769C83.2106 16.5893 73.1058 17.955 70.1529 24.1169C69.4882 25.5052 69.3448 26.9559 69.6673 28.3607C59.9665 32.796 54.6506 41.1815 54.6914 52.125L54.7203 55.8678C54.7424 57.986 54.7985 61.9544 54.8404 62.1317C54.8399 62.1646 54.8637 64.038 54.8637 64.5916C53.5003 64.9611 52.2581 65.6938 51.2489 66.7387C49.7416 68.3039 48.9533 70.3626 49.031 72.5357C49.1148 74.9616 50.4918 77.3037 52.7098 78.8002C54.1111 79.7454 55.5165 80.2078 57.0436 80.1835C59.4146 88.845 65.164 96.1136 72.8349 100.527C72.8344 100.546 72.8242 100.562 72.8242 100.581V103.244L54.7594 111.454C46.4566 115.228 41.0908 123.662 41.0908 132.936V151.581C41.0908 152.834 42.1046 153.847 43.3575 153.847H124.957C126.21 153.847 127.224 152.834 127.224 151.581V141.144C128.34 141.285 129.47 141.381 130.624 141.381C140.636 141.381 151.252 134.901 153.809 127.234C154.843 124.127 155.445 118.067 147.849 112.369ZM100.452 20.8835C101.311 20.5826 102.232 20.6353 103.048 21.0229C104.412 21.6774 105.125 23.1241 104.934 24.5453C104.007 24.0347 103.056 23.5378 102.07 23.0657C101.093 22.5982 100.119 22.1715 99.1487 21.772C99.5147 21.3873 99.9375 21.0643 100.452 20.8835ZM74.2391 26.0742C75.2597 23.9469 78.4449 22.7093 82.9119 22.7093C87.5802 22.7093 93.6497 24.0597 100.113 27.1542C112.761 33.2147 119.253 42.2859 117.171 46.6379C116.755 47.5078 116.287 47.7622 115.927 47.8886C113.289 48.7918 107.031 45.695 100.39 42.4191C98.7588 41.6133 97.048 40.7678 95.2591 39.911C93.5035 39.0701 91.7639 38.262 90.0769 37.4783C82.7567 34.0761 75.1906 30.5565 74.1173 27.5662C73.9405 27.0721 73.9756 26.625 74.2391 26.0742ZM71.9708 32.286C75.1503 35.5324 81.085 38.2977 88.1644 41.5889C89.8378 42.3658 91.5621 43.1671 93.3018 44.0018C95.0726 44.8495 96.7681 45.6865 98.3842 46.4832C103.528 49.0242 107.801 51.1282 111.356 52.057V60.6278C104.573 65.7278 96.9035 67.6601 89.6542 66.0752C83.1551 64.6562 77.7655 60.5371 74.8698 54.7753C74.54 54.1202 73.9133 53.664 73.1897 53.5535C72.4615 53.4362 71.7288 53.6861 71.2194 54.2131C68.2954 57.2233 64.0255 59.0321 59.2774 59.3284C59.2752 58.2348 59.2621 57.0442 59.2508 55.8242L59.2219 52.1074C59.1794 40.4261 65.9953 34.8955 71.9708 32.286ZM60.9735 77.1405C60.8431 76.5052 60.4465 75.9561 59.8843 75.6309C59.3222 75.3079 58.6467 75.2455 58.0296 75.4473C57.153 75.7459 56.3427 75.7861 55.245 75.0421C54.2403 74.3649 53.5938 73.3421 53.5581 72.3748C53.5246 71.4409 53.8635 70.5575 54.5101 69.8866C55.1566 69.2179 56.0242 68.8484 56.9558 68.8484C57.5689 68.8484 58.1798 68.5872 58.6071 68.1492C59.2366 67.502 59.431 66.9467 59.3919 63.8533C64.2409 63.5813 68.7396 61.9997 72.2649 59.3216C75.9726 64.9906 81.8183 69.006 88.6869 70.5042C90.6702 70.9383 92.6734 71.1531 94.6811 71.1531C100.319 71.1514 105.972 69.4349 111.235 66.167C111.321 67.2028 111.528 67.6987 111.986 68.1622C112.411 68.594 113.016 68.8484 113.622 68.8484C114.597 68.8484 115.526 69.2666 116.17 69.9971C116.825 70.7366 117.118 71.6925 116.996 72.691C116.881 73.6118 116.243 74.5151 115.291 75.1107C114.335 75.7062 113.525 75.7969 112.5 75.4359C111.889 75.2121 111.21 75.2767 110.643 75.5906C110.074 75.9074 109.669 76.4537 109.529 77.0895C107.322 87.2232 99.8321 95.5016 89.9794 98.6936L88.9787 99.0212C86.1607 99.9352 83.2809 99.9686 80.6555 99.1209C70.6334 95.896 63.0917 87.4731 60.9735 77.1405ZM79.266 103.437C80.9836 103.991 82.7703 104.265 84.5831 104.265C86.5069 104.265 88.4568 103.955 90.3784 103.333L90.9563 103.144V103.982C90.9563 107.731 87.906 110.782 84.1563 110.782C80.4067 110.782 77.3563 107.731 77.3563 103.982V102.686C77.9933 102.935 78.6093 103.226 79.266 103.437ZM122.689 149.315H109.089V137.982C109.089 136.729 108.075 135.715 106.822 135.715C105.57 135.715 104.556 136.729 104.556 137.982V149.315H61.4891V137.982C61.4891 136.729 60.4754 135.715 59.2225 135.715C57.9696 135.715 56.9558 136.729 56.9558 137.982V149.315H45.6225V132.937C45.6225 125.436 49.9456 118.622 56.6351 115.581L73.5591 107.889C75.1588 112.21 79.2859 115.315 84.1558 115.315C89.0263 115.315 93.1528 112.21 94.7525 107.889L103.548 111.886C103.485 112.649 103.422 113.414 103.422 114.182C103.422 126.421 111.55 136.791 122.689 140.195V149.315ZM149.506 125.801C147.578 131.582 138.578 136.848 130.622 136.848C118.125 136.848 107.956 126.68 107.956 114.182C107.956 107.366 110.968 100.64 116.013 96.1878C119.582 93.0377 123.847 91.3644 128.212 91.3644C128.92 91.3644 129.631 91.4086 130.341 91.497C139.211 92.6059 139.512 96.9664 139.931 103.001C140.24 107.497 140.592 112.592 145.13 115.995C149.188 119.038 150.66 122.339 149.506 125.801Z" fill="#B6B6B6"/>
<path d="M139.689 116.541C135.991 116.541 132.982 119.55 132.982 123.248C132.982 126.945 135.991 129.953 139.689 129.953C143.388 129.953 146.397 126.945 146.397 123.248C146.397 119.55 143.389 116.541 139.689 116.541ZM139.689 125.42C138.492 125.42 137.516 124.446 137.516 123.248C137.516 122.051 138.492 121.075 139.689 121.075C140.887 121.075 141.863 122.051 141.863 123.248C141.863 124.446 140.887 125.42 139.689 125.42Z" fill="#B6B6B6"/>
<path d="M126.09 94.6492C122.818 94.6492 120.157 97.3097 120.157 100.582C120.157 103.854 122.818 106.514 126.09 106.514C129.362 106.514 132.022 103.854 132.022 100.582C132.022 97.3097 129.362 94.6492 126.09 94.6492ZM126.09 101.981C125.32 101.981 124.691 101.352 124.691 100.582C124.691 99.8109 125.319 99.1825 126.09 99.1825C126.86 99.1825 127.489 99.8109 127.489 100.582C127.489 101.352 126.86 101.981 126.09 101.981Z" fill="#B6B6B6"/>
<path d="M121.822 113.048C121.822 109.777 119.161 107.116 115.889 107.116C112.618 107.116 109.957 109.776 109.957 113.048C109.957 116.32 112.618 118.981 115.889 118.981C119.161 118.981 121.822 116.32 121.822 113.048ZM115.889 114.448C115.119 114.448 114.49 113.819 114.49 113.048C114.49 112.278 115.119 111.649 115.889 111.649C116.66 111.649 117.289 112.278 117.289 113.048C117.289 113.819 116.66 114.448 115.889 114.448Z" fill="#B6B6B6"/>
<path d="M123.823 121.849C120.552 121.849 117.891 124.51 117.891 127.782C117.891 131.053 120.551 133.714 123.823 133.714C127.095 133.714 129.755 131.053 129.755 127.782C129.755 124.51 127.095 121.849 123.823 121.849ZM123.823 129.181C123.053 129.181 122.424 128.552 122.424 127.782C122.424 127.011 123.052 126.382 123.823 126.382C124.594 126.382 125.222 127.011 125.222 127.782C125.222 128.552 124.594 129.181 123.823 129.181Z" fill="#B6B6B6"/>
<path d="M34.7942 98.0604C34.3738 97.6445 33.9465 97.2217 33.5306 96.7854C33.53 96.7848 33.5294 96.7848 33.5294 96.7843C33.5289 96.7843 33.5289 96.7837 33.5289 96.7831C31.7915 94.9658 30.6338 93.31 30.6338 91.1431C30.6338 88.2633 29.1395 87.4728 28.2475 87.2586C24.7127 86.3644 20.5732 93.3015 18.4215 97.496C17.129 100.017 15.5859 103.546 15.5859 106.04C15.5859 110.439 18.0118 114.245 21.5699 116.305L20.2587 145.424C20.1521 147.776 20.9761 150.052 22.5185 151.664C23.8644 153.074 25.6307 153.848 27.4899 153.848C29.3491 153.848 31.1154 153.074 32.4613 151.664C34.0043 150.052 34.8277 147.777 34.7211 145.424L33.4099 116.305C36.968 114.244 39.3944 110.438 39.3944 106.04C39.3939 102.616 36.9498 100.194 34.7942 98.0604ZM26.3384 93.3718C26.7589 95.269 27.682 96.8472 28.7513 98.206C27.95 98.8016 27.1595 99.1155 26.3872 99.1467C25.3468 99.1422 24.218 98.6622 23.2971 97.9958C24.3948 96.0459 25.4731 94.4723 26.3384 93.3718ZM30.1923 145.627C30.2433 146.749 29.8756 147.81 29.1854 148.531C28.8442 148.89 28.2713 149.315 27.4899 149.315C26.7085 149.315 26.135 148.89 25.7944 148.531C25.1037 147.81 24.7365 146.749 24.7875 145.627L26.0404 117.798C26.5209 117.857 26.9935 117.945 27.4899 117.945C27.9863 117.945 28.4589 117.857 28.9394 117.798L30.1923 145.627ZM27.4893 113.411C23.4252 113.411 20.1181 110.104 20.1181 106.04C20.1181 105.398 20.4547 104.031 21.2855 102.062C22.9175 103.107 24.5778 103.682 26.254 103.682C26.356 103.682 26.4574 103.68 26.5617 103.676C28.4181 103.604 30.1884 102.875 31.8504 101.526C33.4886 103.152 34.8605 104.579 34.8605 106.04C34.8605 110.104 31.5535 113.411 27.4893 113.411Z" fill="#B6B6B6"/>
</svg>
